<?xml version="1.0" encoding="UTF-8" standalone="no"?>
<!DOCTYPE svg PUBLIC "-//W3C//DTD SVG 1.1//EN"
 "http://www.w3.org/Graphics/SVG/1.1/DTD/svg11.dtd">
<!-- Generated by graphviz version 2.40.1 (20161225.0304)
 -->
<!-- Title: %3 Pages: 1 -->
<svg width="3825pt" height="326pt"
 viewBox="0.00 0.00 3824.69 326.00" xmlns="http://www.w3.org/2000/svg" xmlns:xlink="http://www.w3.org/1999/xlink">
<g id="graph0" class="graph" transform="scale(1 1) rotate(0) translate(4 322)">
<title>%3</title>
<polygon fill="#ffffff" stroke="transparent" points="-4,4 -4,-322 3820.687,-322 3820.687,4 -4,4"/>
<!-- kernel -->
<g id="node1" class="node">
<title>kernel</title>
<polygon fill="none" stroke="#000000" points="1031.8737,-318 615.5238,-318 615.5238,-282 1031.8737,-282 1031.8737,-318"/>
<text text-anchor="middle" x="823.6987" y="-302.8" font-family="Helvetica,sans-Serif" font-size="14.00" fill="#000000">linuxkit/kernel</text>
<text text-anchor="middle" x="823.6987" y="-288.8" font-family="Helvetica,sans-Serif" font-size="14.00" fill="#000000">4.12.14&#45;5780e035ae466e124b541269f0003c11f80e8373&#45;amd64</text>
</g>
<!-- rootfs -->
<g id="node2" class="node">
<title>rootfs</title>
<polygon fill="none" stroke="#000000" points="1669.6623,-245 1605.7351,-245 1605.7351,-209 1669.6623,-209 1669.6623,-245"/>
<text text-anchor="middle" x="1637.6987" y="-222.8" font-family="Helvetica,sans-Serif" font-size="14.00" fill="#000000">RootFS</text>
</g>
<!-- kernel&#45;&gt;rootfs -->
<g id="edge1" class="edge">
<title>kernel&#45;&gt;rootfs</title>
<path fill="none" stroke="#000000" d="M1024.6511,-281.9785C1216.7253,-264.7531 1491.9589,-240.07 1595.8584,-230.7523"/>
<polygon fill="#000000" stroke="#000000" points="1605.9467,-229.8475 1596.3886,-235.2229 1600.9667,-230.2942 1595.9866,-230.7409 1595.9866,-230.7409 1595.9866,-230.7409 1600.9667,-230.2942 1595.5847,-226.2588 1605.9467,-229.8475 1605.9467,-229.8475"/>
</g>
<!-- sysctl
linuxkit/sysctl
154913b72c6f1f33eb408609fca9963628e8c051 -->
<g id="node8" class="node">
<title>sysctl
linuxkit/sysctl
154913b72c6f1f33eb408609fca9963628e8c051</title>
<polygon fill="none" stroke="#ff0000" points="313.5964,-137 -.199,-137 -.199,-87 313.5964,-87 313.5964,-137"/>
<text text-anchor="middle" x="156.6987" y="-121.8" font-family="Helvetica,sans-Serif" font-size="14.00" fill="#000000">sysctl</text>
<text text-anchor="middle" x="156.6987" y="-107.8" font-family="Helvetica,sans-Serif" font-size="14.00" fill="#000000">linuxkit/sysctl</text>
<text text-anchor="middle" x="156.6987" y="-93.8" font-family="Helvetica,sans-Serif" font-size="14.00" fill="#000000">154913b72c6f1f33eb408609fca9963628e8c051</text>
</g>
<!-- rootfs&#45;&gt;sysctl
linuxkit/sysctl
154913b72c6f1f33eb408609fca9963628e8c051 -->
<g id="edge7" class="edge">
<title>rootfs&#45;&gt;sysctl
linuxkit/sysctl
154913b72c6f1f33eb408609fca9963628e8c051</title>
<path fill="none" stroke="#ff0000" d="M1605.955,-226.2662C1462.1896,-222.8712 871.1614,-208.1223 686.6987,-191 527.1901,-176.194 486.1179,-161.7814 323.8854,-137.1874"/>
<polygon fill="#ff0000" stroke="#ff0000" points="313.5338,-135.6291 324.0923,-132.6679 318.4781,-136.3735 323.4224,-137.1178 323.4224,-137.1178 323.4224,-137.1178 318.4781,-136.3735 322.7525,-141.5677 313.5338,-135.6291 313.5338,-135.6291"/>
</g>
<!-- sysfs
linuxkit/sysfs
3ae01a25583ee37a5ff8b09a0e569cb4bd8cf2e9 -->
<g id="node9" class="node">
<title>sysfs
linuxkit/sysfs
3ae01a25583ee37a5ff8b09a0e569cb4bd8cf2e9</title>
<polygon fill="none" stroke="#ff0000" points="645.6362,-137 331.7612,-137 331.7612,-87 645.6362,-87 645.6362,-137"/>
<text text-anchor="middle" x="488.6987" y="-121.8" font-family="Helvetica,sans-Serif" font-size="14.00" fill="#000000">sysfs</text>
<text text-anchor="middle" x="488.6987" y="-107.8" font-family="Helvetica,sans-Serif" font-size="14.00" fill="#000000">linuxkit/sysfs</text>
<text text-anchor="middle" x="488.6987" y="-93.8" font-family="Helvetica,sans-Serif" font-size="14.00" fill="#000000">3ae01a25583ee37a5ff8b09a0e569cb4bd8cf2e9</text>
</g>
<!-- rootfs&#45;&gt;sysfs
linuxkit/sysfs
3ae01a25583ee37a5ff8b09a0e569cb4bd8cf2e9 -->
<g id="edge8" class="edge">
<title>rootfs&#45;&gt;sysfs
linuxkit/sysfs
3ae01a25583ee37a5ff8b09a0e569cb4bd8cf2e9</title>
<path fill="none" stroke="#ff0000" d="M1605.845,-226.0115C1483.8106,-222.134 1045.9952,-207.3693 907.6987,-191 806.1537,-178.9807 692.1994,-156.931 608.793,-139.175"/>
<polygon fill="#ff0000" stroke="#ff0000" points="598.7759,-137.0319 609.496,-134.7237 603.6652,-138.078 608.5546,-139.1241 608.5546,-139.1241 608.5546,-139.1241 603.6652,-138.078 607.6131,-143.5245 598.7759,-137.0319 598.7759,-137.0319"/>
</g>
<!-- modprobe
trxuk/modprobe
17f7368e60058c0d6b266cdf28176fc757b5b8ce -->
<g id="node10" class="node">
<title>modprobe
trxuk/modprobe
17f7368e60058c0d6b266cdf28176fc757b5b8ce</title>
<polygon fill="none" stroke="#ff0000" points="975.8103,-137 663.5872,-137 663.5872,-87 975.8103,-87 975.8103,-137"/>
<text text-anchor="middle" x="819.6987" y="-121.8" font-family="Helvetica,sans-Serif" font-size="14.00" fill="#000000">modprobe</text>
<text text-anchor="middle" x="819.6987" y="-107.8" font-family="Helvetica,sans-Serif" font-size="14.00" fill="#000000">trxuk/modprobe</text>
<text text-anchor="middle" x="819.6987" y="-93.8" font-family="Helvetica,sans-Serif" font-size="14.00" fill="#000000">17f7368e60058c0d6b266cdf28176fc757b5b8ce</text>
</g>
<!-- rootfs&#45;&gt;modprobe
trxuk/modprobe
17f7368e60058c0d6b266cdf28176fc757b5b8ce -->
<g id="edge9" class="edge">
<title>rootfs&#45;&gt;modprobe
trxuk/modprobe
17f7368e60058c0d6b266cdf28176fc757b5b8ce</title>
<path fill="none" stroke="#ff0000" d="M1605.899,-226.5419C1495.3504,-224.7351 1128.2774,-216.8832 1013.6987,-191 966.2824,-180.2887 915.49,-159.2242 877.7752,-141.5389"/>
<polygon fill="#ff0000" stroke="#ff0000" points="868.4784,-137.1239 879.442,-137.3489 872.995,-139.2688 877.5115,-141.4138 877.5115,-141.4138 877.5115,-141.4138 872.995,-139.2688 875.581,-145.4787 868.4784,-137.1239 868.4784,-137.1239"/>
</g>
<!-- metadata
linuxkit/metadata
da3138079c168e0c5608d8f3853366c113ed91d2 -->
<g id="node11" class="node">
<title>metadata
linuxkit/metadata
da3138079c168e0c5608d8f3853366c113ed91d2</title>
<polygon fill="none" stroke="#ff0000" points="1313.857,-137 993.5405,-137 993.5405,-87 1313.857,-87 1313.857,-137"/>
<text text-anchor="middle" x="1153.6987" y="-121.8" font-family="Helvetica,sans-Serif" font-size="14.00" fill="#000000">metadata</text>
<text text-anchor="middle" x="1153.6987" y="-107.8" font-family="Helvetica,sans-Serif" font-size="14.00" fill="#000000">linuxkit/metadata</text>
<text text-anchor="middle" x="1153.6987" y="-93.8" font-family="Helvetica,sans-Serif" font-size="14.00" fill="#000000">da3138079c168e0c5608d8f3853366c113ed91d2</text>
</g>
<!-- rootfs&#45;&gt;metadata
linuxkit/metadata
da3138079c168e0c5608d8f3853366c113ed91d2 -->
<g id="edge10" class="edge">
<title>rootfs&#45;&gt;metadata
linuxkit/metadata
da3138079c168e0c5608d8f3853366c113ed91d2</title>
<path fill="none" stroke="#ff0000" d="M1605.9344,-226.3299C1483.0717,-223.5858 1044.8121,-212.3292 1024.6987,-191 1013.7217,-179.3594 1015.3434,-167.9799 1024.6987,-155 1028.2655,-150.0514 1035.6494,-145.3483 1045.1638,-140.9934"/>
<polygon fill="#ff0000" stroke="#ff0000" points="1054.4521,-137.0949 1046.973,-145.1144 1049.8417,-139.03 1045.2314,-140.9651 1045.2314,-140.9651 1045.2314,-140.9651 1049.8417,-139.03 1043.4898,-136.8158 1054.4521,-137.0949 1054.4521,-137.0949"/>
</g>
<!-- /etc/resolv.conf -->
<g id="node13" class="node">
<title>/etc/resolv.conf</title>
<polygon fill="none" stroke="#0000ff" points="1732.3179,-130 1623.0795,-130 1623.0795,-94 1732.3179,-94 1732.3179,-130"/>
<text text-anchor="middle" x="1677.6987" y="-107.8" font-family="Helvetica,sans-Serif" font-size="14.00" fill="#000000">/etc/resolv.conf</text>
</g>
<!-- rootfs&#45;&gt;/etc/resolv.conf -->
<g id="edge11" class="edge">
<title>rootfs&#45;&gt;/etc/resolv.conf</title>
<path fill="none" stroke="#ff0000" d="M1669.48,-224.1605C1728.316,-218.5811 1849.3726,-205.4653 1861.6987,-191 1872.0761,-178.8217 1872.1396,-167.1238 1861.6987,-155 1844.1026,-134.5675 1767.753,-143.949 1741.6987,-137 1737.6791,-135.9279 1733.5669,-134.684 1729.4619,-133.3349"/>
<polygon fill="#ff0000" stroke="#ff0000" points="1719.9439,-130.0276 1730.8669,-129.0592 1724.6669,-131.6687 1729.3899,-133.3099 1729.3899,-133.3099 1729.3899,-133.3099 1724.6669,-131.6687 1727.9128,-137.5606 1719.9439,-130.0276 1719.9439,-130.0276"/>
<text text-anchor="middle" x="1909.6069" y="-181.4" font-family="Helvetica,sans-Serif" font-size="12.00" fill="#000000">/etc/resolv.conf</text>
<text text-anchor="middle" x="1909.6069" y="-169.4" font-family="Helvetica,sans-Serif" font-size="12.00" fill="#000000"> rshared:False</text>
<text text-anchor="middle" x="1909.6069" y="-157.4" font-family="Helvetica,sans-Serif" font-size="12.00" fill="#000000"> rbind:False</text>
</g>
<!-- rootfs&#45;&gt;/etc/resolv.conf -->
<g id="edge28" class="edge">
<title>rootfs&#45;&gt;/etc/resolv.conf</title>
<path fill="none" stroke="#0000ff" d="M1669.4796,-221.9217C1701.6018,-216.0637 1747.9871,-205.3626 1758.6987,-191 1768.2642,-178.1742 1766.9439,-168.712 1758.6987,-155 1754.9323,-148.7364 1743.4489,-141.4347 1730.2683,-134.6452"/>
<polygon fill="#0000ff" stroke="#0000ff" points="1720.946,-130.0457 1731.905,-130.4348 1725.43,-132.258 1729.9139,-134.4704 1729.9139,-134.4704 1729.9139,-134.4704 1725.43,-132.258 1727.9228,-138.5059 1720.946,-130.0457 1720.946,-130.0457"/>
<text text-anchor="middle" x="1805.6069" y="-181.4" font-family="Helvetica,sans-Serif" font-size="12.00" fill="#000000">/etc/resolv.conf</text>
<text text-anchor="middle" x="1805.6069" y="-169.4" font-family="Helvetica,sans-Serif" font-size="12.00" fill="#000000"> rshared:False</text>
<text text-anchor="middle" x="1805.6069" y="-157.4" font-family="Helvetica,sans-Serif" font-size="12.00" fill="#000000"> rbind:False</text>
</g>
<!-- /run -->
<g id="node14" class="node">
<title>/run</title>
<polygon fill="none" stroke="#0000ff" points="1531.6987,-130 1477.6987,-130 1477.6987,-94 1531.6987,-94 1531.6987,-130"/>
<text text-anchor="middle" x="1504.6987" y="-107.8" font-family="Helvetica,sans-Serif" font-size="14.00" fill="#000000">/run</text>
</g>
<!-- rootfs&#45;&gt;/run -->
<g id="edge13" class="edge">
<title>rootfs&#45;&gt;/run</title>
<path fill="none" stroke="#ff0000" d="M1605.7114,-224.4079C1544.3996,-219.1142 1415.2167,-206.263 1402.1089,-191 1391.6846,-178.8618 1392.4322,-167.7421 1402.1089,-155 1420.132,-131.2674 1439.5721,-149.3374 1466.6987,-137 1468.0466,-136.387 1469.4008,-135.7297 1470.7533,-135.0378"/>
<polygon fill="#ff0000" stroke="#ff0000" points="1479.5671,-130.0743 1473.0619,-138.9023 1475.2105,-132.5278 1470.8538,-134.9813 1470.8538,-134.9813 1470.8538,-134.9813 1475.2105,-132.5278 1468.6456,-131.0603 1479.5671,-130.0743 1479.5671,-130.0743"/>
<text text-anchor="middle" x="1438.4937" y="-181.4" font-family="Helvetica,sans-Serif" font-size="12.00" fill="#000000">/run</text>
<text text-anchor="middle" x="1438.4937" y="-169.4" font-family="Helvetica,sans-Serif" font-size="12.00" fill="#000000"> rshared:True</text>
<text text-anchor="middle" x="1438.4937" y="-157.4" font-family="Helvetica,sans-Serif" font-size="12.00" fill="#000000"> rbind:True</text>
</g>
<!-- rootfs&#45;&gt;/run -->
<g id="edge30" class="edge">
<title>rootfs&#45;&gt;/run</title>
<path fill="none" stroke="#0000ff" d="M1605.7105,-223.0049C1569.7279,-217.7769 1514.656,-207.3132 1502.1089,-191 1491.2655,-176.9019 1492.0657,-156.8294 1495.4989,-140.4457"/>
<polygon fill="#0000ff" stroke="#0000ff" points="1498.0393,-130.3119 1499.9726,-141.106 1496.8235,-135.1618 1495.6076,-140.0117 1495.6076,-140.0117 1495.6076,-140.0117 1496.8235,-135.1618 1491.2427,-138.9174 1498.0393,-130.3119 1498.0393,-130.3119"/>
<text text-anchor="middle" x="1538.4937" y="-181.4" font-family="Helvetica,sans-Serif" font-size="12.00" fill="#000000">/run</text>
<text text-anchor="middle" x="1538.4937" y="-169.4" font-family="Helvetica,sans-Serif" font-size="12.00" fill="#000000"> rshared:True</text>
<text text-anchor="middle" x="1538.4937" y="-157.4" font-family="Helvetica,sans-Serif" font-size="12.00" fill="#000000"> rbind:True</text>
</g>
<!-- /dev -->
<g id="node15" class="node">
<title>/dev</title>
<polygon fill="none" stroke="#0000ff" points="1457.6987,-130 1403.6987,-130 1403.6987,-94 1457.6987,-94 1457.6987,-130"/>
<text text-anchor="middle" x="1430.6987" y="-107.8" font-family="Helvetica,sans-Serif" font-size="14.00" fill="#000000">/dev</text>
</g>
<!-- rootfs&#45;&gt;/dev -->
<g id="edge15" class="edge">
<title>rootfs&#45;&gt;/dev</title>
<path fill="none" stroke="#ff0000" d="M1605.925,-226.7977C1510.1648,-225.861 1229.248,-220.5928 1201.9995,-191 1191.1616,-179.2297 1191.2248,-166.8281 1201.9995,-155 1230.9624,-123.2056 1354.2987,-151.7501 1394.6987,-137 1396.3204,-136.4079 1397.9373,-135.7245 1399.5377,-134.9704"/>
<polygon fill="#ff0000" stroke="#ff0000" points="1408.4392,-130.0255 1401.8828,-138.8155 1404.0683,-132.4536 1399.6975,-134.8817 1399.6975,-134.8817 1399.6975,-134.8817 1404.0683,-132.4536 1397.5122,-130.9479 1408.4392,-130.0255 1408.4392,-130.0255"/>
<text text-anchor="middle" x="1241.0483" y="-181.4" font-family="Helvetica,sans-Serif" font-size="12.00" fill="#000000">/dev</text>
<text text-anchor="middle" x="1241.0483" y="-169.4" font-family="Helvetica,sans-Serif" font-size="12.00" fill="#000000"> rshared:False</text>
<text text-anchor="middle" x="1241.0483" y="-157.4" font-family="Helvetica,sans-Serif" font-size="12.00" fill="#000000"> rbind:False</text>
</g>
<!-- rootfs&#45;&gt;/dev -->
<g id="edge26" class="edge">
<title>rootfs&#45;&gt;/dev</title>
<path fill="none" stroke="#0000ff" d="M1605.7242,-225.819C1527.8405,-222.6149 1333.2544,-212.515 1313.9995,-191 1303.3294,-179.0774 1303.9928,-167.4846 1313.9995,-155 1336.9822,-126.3262 1361.044,-151.7565 1394.6987,-137 1396.0489,-136.408 1397.401,-135.7624 1398.7468,-135.0747"/>
<polygon fill="#0000ff" stroke="#0000ff" points="1407.4544,-130.0473 1401.0442,-138.9445 1403.1243,-132.5473 1398.7942,-135.0474 1398.7942,-135.0474 1398.7942,-135.0474 1403.1243,-132.5473 1396.5441,-131.1503 1407.4544,-130.0473 1407.4544,-130.0473"/>
<text text-anchor="middle" x="1353.0483" y="-181.4" font-family="Helvetica,sans-Serif" font-size="12.00" fill="#000000">/dev</text>
<text text-anchor="middle" x="1353.0483" y="-169.4" font-family="Helvetica,sans-Serif" font-size="12.00" fill="#000000"> rshared:False</text>
<text text-anchor="middle" x="1353.0483" y="-157.4" font-family="Helvetica,sans-Serif" font-size="12.00" fill="#000000"> rbind:False</text>
</g>
<!-- /tmp -->
<g id="node16" class="node">
<title>/tmp</title>
<polygon fill="none" stroke="#0000ff" points="1385.6987,-130 1331.6987,-130 1331.6987,-94 1385.6987,-94 1385.6987,-130"/>
<text text-anchor="middle" x="1358.6987" y="-107.8" font-family="Helvetica,sans-Serif" font-size="14.00" fill="#000000">/tmp</text>
</g>
<!-- rootfs&#45;&gt;/tmp -->
<g id="edge17" class="edge">
<title>rootfs&#45;&gt;/tmp</title>
<path fill="none" stroke="#ff0000" d="M1605.6597,-225.9688C1495.1531,-222.2586 1135.7704,-208.8582 1119.1089,-191 1108.194,-179.3011 1108.3049,-166.8014 1119.1089,-155 1149.7779,-121.4998 1279.9962,-152.4709 1322.6987,-137 1324.3218,-136.412 1325.94,-135.7318 1327.5413,-134.9804"/>
<polygon fill="#ff0000" stroke="#ff0000" points="1336.4462,-130.0448 1329.8814,-138.8285 1332.073,-132.4687 1327.6998,-134.8926 1327.6998,-134.8926 1327.6998,-134.8926 1332.073,-132.4687 1325.5183,-130.9568 1336.4462,-130.0448 1336.4462,-130.0448"/>
<text text-anchor="middle" x="1155.4937" y="-181.4" font-family="Helvetica,sans-Serif" font-size="12.00" fill="#000000">/tmp</text>
<text text-anchor="middle" x="1155.4937" y="-169.4" font-family="Helvetica,sans-Serif" font-size="12.00" fill="#000000"> rshared:True</text>
<text text-anchor="middle" x="1155.4937" y="-157.4" font-family="Helvetica,sans-Serif" font-size="12.00" fill="#000000"> rbind:True</text>
</g>
<!-- rootfs&#45;&gt;/tmp -->
<g id="edge32" class="edge">
<title>rootfs&#45;&gt;/tmp</title>
<path fill="none" stroke="#0000ff" d="M1605.6982,-226.2876C1483.994,-223.4251 1055.7927,-211.8969 1036.1089,-191 1025.1383,-179.3533 1025.1555,-166.6629 1036.1089,-155 1057.9513,-131.7426 1292.5648,-147.4854 1322.6987,-137 1324.3292,-136.4327 1325.9534,-135.7695 1327.5597,-135.032"/>
<polygon fill="#0000ff" stroke="#0000ff" points="1336.4816,-130.1444 1329.8735,-138.8956 1332.0965,-132.5467 1327.7114,-134.949 1327.7114,-134.949 1327.7114,-134.949 1332.0965,-132.5467 1325.5493,-131.0024 1336.4816,-130.1444 1336.4816,-130.1444"/>
<text text-anchor="middle" x="1072.4937" y="-181.4" font-family="Helvetica,sans-Serif" font-size="12.00" fill="#000000">/tmp</text>
<text text-anchor="middle" x="1072.4937" y="-169.4" font-family="Helvetica,sans-Serif" font-size="12.00" fill="#000000"> rshared:True</text>
<text text-anchor="middle" x="1072.4937" y="-157.4" font-family="Helvetica,sans-Serif" font-size="12.00" fill="#000000"> rbind:True</text>
</g>
<!-- /var -->
<g id="node17" class="node">
<title>/var</title>
<polygon fill="none" stroke="#0000ff" points="1604.6987,-130 1550.6987,-130 1550.6987,-94 1604.6987,-94 1604.6987,-130"/>
<text text-anchor="middle" x="1577.6987" y="-107.8" font-family="Helvetica,sans-Serif" font-size="14.00" fill="#000000">/var</text>
</g>
<!-- rootfs&#45;&gt;/var -->
<g id="edge19" class="edge">
<title>rootfs&#45;&gt;/var</title>
<path fill="none" stroke="#ff0000" d="M1654.1688,-208.8045C1658.0553,-203.4414 1661.6588,-197.3086 1663.6987,-191 1668.6214,-175.7761 1672.8989,-168.0903 1663.6987,-155 1650.1179,-135.6768 1634.6886,-147.8283 1613.6987,-137 1612.7182,-136.4942 1611.7332,-135.9654 1610.7475,-135.418"/>
<polygon fill="#ff0000" stroke="#ff0000" points="1601.9535,-130.1005 1612.8392,-131.4241 1606.2321,-132.6877 1610.5108,-135.2749 1610.5108,-135.2749 1610.5108,-135.2749 1606.2321,-132.6877 1608.1823,-139.1256 1601.9535,-130.1005 1601.9535,-130.1005"/>
<text text-anchor="middle" x="1705.4937" y="-181.4" font-family="Helvetica,sans-Serif" font-size="12.00" fill="#000000">/var</text>
<text text-anchor="middle" x="1705.4937" y="-169.4" font-family="Helvetica,sans-Serif" font-size="12.00" fill="#000000"> rshared:True</text>
<text text-anchor="middle" x="1705.4937" y="-157.4" font-family="Helvetica,sans-Serif" font-size="12.00" fill="#000000"> rbind:True</text>
</g>
<!-- rootfs&#45;&gt;/var -->
<g id="edge34" class="edge">
<title>rootfs&#45;&gt;/var</title>
<path fill="none" stroke="#0000ff" d="M1605.7835,-209.7197C1598.9377,-204.5714 1592.4624,-198.3133 1588.1089,-191 1579.1399,-175.9331 1576.5003,-156.4198 1576.1213,-140.5566"/>
<polygon fill="#0000ff" stroke="#0000ff" points="1576.17,-130.2571 1580.6225,-140.2783 1576.1463,-135.257 1576.1226,-140.257 1576.1226,-140.257 1576.1226,-140.257 1576.1463,-135.257 1571.6226,-140.2356 1576.17,-130.2571 1576.17,-130.2571"/>
<text text-anchor="middle" x="1624.4937" y="-181.4" font-family="Helvetica,sans-Serif" font-size="12.00" fill="#000000">/var</text>
<text text-anchor="middle" x="1624.4937" y="-169.4" font-family="Helvetica,sans-Serif" font-size="12.00" fill="#000000"> rshared:True</text>
<text text-anchor="middle" x="1624.4937" y="-157.4" font-family="Helvetica,sans-Serif" font-size="12.00" fill="#000000"> rbind:True</text>
</g>
<!-- dhcpcd
linuxkit/dhcpcd
f3f5413abb78fae9020e35bd4788fa93df4530b7 -->
<g id="node18" class="node">
<title>dhcpcd
linuxkit/dhcpcd
f3f5413abb78fae9020e35bd4788fa93df4530b7</title>
<polygon fill="none" stroke="#0000ff" points="2460.6616,-137 2152.7358,-137 2152.7358,-87 2460.6616,-87 2460.6616,-137"/>
<text text-anchor="middle" x="2306.6987" y="-121.8" font-family="Helvetica,sans-Serif" font-size="14.00" fill="#000000">dhcpcd</text>
<text text-anchor="middle" x="2306.6987" y="-107.8" font-family="Helvetica,sans-Serif" font-size="14.00" fill="#000000">linuxkit/dhcpcd</text>
<text text-anchor="middle" x="2306.6987" y="-93.8" font-family="Helvetica,sans-Serif" font-size="14.00" fill="#000000">f3f5413abb78fae9020e35bd4788fa93df4530b7</text>
</g>
<!-- rootfs&#45;&gt;dhcpcd
linuxkit/dhcpcd
f3f5413abb78fae9020e35bd4788fa93df4530b7 -->
<g id="edge21" class="edge">
<title>rootfs&#45;&gt;dhcpcd
linuxkit/dhcpcd
f3f5413abb78fae9020e35bd4788fa93df4530b7</title>
<path fill="none" stroke="#0000ff" d="M1669.57,-226.8358C1789.0188,-225.9922 2205.9167,-220.9119 2256.6987,-191 2273.5339,-181.0836 2285.5919,-163.0259 2293.643,-146.6756"/>
<polygon fill="#0000ff" stroke="#0000ff" points="2297.9262,-137.3206 2297.8548,-148.2863 2295.8447,-141.8668 2293.7632,-146.4129 2293.7632,-146.4129 2293.7632,-146.4129 2295.8447,-141.8668 2289.6717,-144.5396 2297.9262,-137.3206 2297.9262,-137.3206"/>
</g>
<!-- getty
linuxkit/getty
bf6872ce0a9f3ab519b3e502cc41ba3958bda2a6 -->
<g id="node19" class="node">
<title>getty
linuxkit/getty
bf6872ce0a9f3ab519b3e502cc41ba3958bda2a6</title>
<polygon fill="none" stroke="#0000ff" points="2796.4928,-137 2478.9046,-137 2478.9046,-87 2796.4928,-87 2796.4928,-137"/>
<text text-anchor="middle" x="2637.6987" y="-121.8" font-family="Helvetica,sans-Serif" font-size="14.00" fill="#000000">getty</text>
<text text-anchor="middle" x="2637.6987" y="-107.8" font-family="Helvetica,sans-Serif" font-size="14.00" fill="#000000">linuxkit/getty</text>
<text text-anchor="middle" x="2637.6987" y="-93.8" font-family="Helvetica,sans-Serif" font-size="14.00" fill="#000000">bf6872ce0a9f3ab519b3e502cc41ba3958bda2a6</text>
</g>
<!-- rootfs&#45;&gt;getty
linuxkit/getty
bf6872ce0a9f3ab519b3e502cc41ba3958bda2a6 -->
<g id="edge22" class="edge">
<title>rootfs&#45;&gt;getty
linuxkit/getty
bf6872ce0a9f3ab519b3e502cc41ba3958bda2a6</title>
<path fill="none" stroke="#0000ff" d="M1669.8033,-225.9201C1783.2036,-221.9957 2164.6125,-207.8336 2285.6987,-191 2370.8413,-179.1634 2465.8668,-157.3111 2535.7047,-139.5849"/>
<polygon fill="#0000ff" stroke="#0000ff" points="2545.8218,-137.0012 2537.2463,-143.8358 2540.9773,-138.2385 2536.1327,-139.4757 2536.1327,-139.4757 2536.1327,-139.4757 2540.9773,-138.2385 2535.0192,-135.1156 2545.8218,-137.0012 2545.8218,-137.0012"/>
</g>
<!-- rngd
linuxkit/rngd
558e86a36242bb74353bc9287b715ddb8567357e -->
<g id="node20" class="node">
<title>rngd
linuxkit/rngd
558e86a36242bb74353bc9287b715ddb8567357e</title>
<polygon fill="none" stroke="#0000ff" points="3140.8581,-137 2814.5394,-137 2814.5394,-87 3140.8581,-87 3140.8581,-137"/>
<text text-anchor="middle" x="2977.6987" y="-121.8" font-family="Helvetica,sans-Serif" font-size="14.00" fill="#000000">rngd</text>
<text text-anchor="middle" x="2977.6987" y="-107.8" font-family="Helvetica,sans-Serif" font-size="14.00" fill="#000000">linuxkit/rngd</text>
<text text-anchor="middle" x="2977.6987" y="-93.8" font-family="Helvetica,sans-Serif" font-size="14.00" fill="#000000">558e86a36242bb74353bc9287b715ddb8567357e</text>
</g>
<!-- rootfs&#45;&gt;rngd
linuxkit/rngd
558e86a36242bb74353bc9287b715ddb8567357e -->
<g id="edge23" class="edge">
<title>rootfs&#45;&gt;rngd
linuxkit/rngd
558e86a36242bb74353bc9287b715ddb8567357e</title>
<path fill="none" stroke="#0000ff" d="M1669.6892,-226.4043C1773.7592,-224.2668 2112.0429,-215.7489 2390.6987,-191 2572.7121,-174.8344 2619.797,-162.8066 2804.2557,-137.1991"/>
<polygon fill="#0000ff" stroke="#0000ff" points="2814.2906,-135.8114 2805.0013,-141.6389 2809.3377,-136.4964 2804.3849,-137.1813 2804.3849,-137.1813 2804.3849,-137.1813 2809.3377,-136.4964 2803.7684,-132.7237 2814.2906,-135.8114 2814.2906,-135.8114"/>
</g>
<!-- ntpd
linuxkit/openntpd
0d7befc79842849d0b88d6c3b64200e340d7cf67 -->
<g id="node21" class="node">
<title>ntpd
linuxkit/openntpd
0d7befc79842849d0b88d6c3b64200e340d7cf67</title>
<polygon fill="none" stroke="#0000ff" points="3476.4928,-137 3158.9046,-137 3158.9046,-87 3476.4928,-87 3476.4928,-137"/>
<text text-anchor="middle" x="3317.6987" y="-121.8" font-family="Helvetica,sans-Serif" font-size="14.00" fill="#000000">ntpd</text>
<text text-anchor="middle" x="3317.6987" y="-107.8" font-family="Helvetica,sans-Serif" font-size="14.00" fill="#000000">linuxkit/openntpd</text>
<text text-anchor="middle" x="3317.6987" y="-93.8" font-family="Helvetica,sans-Serif" font-size="14.00" fill="#000000">0d7befc79842849d0b88d6c3b64200e340d7cf67</text>
</g>
<!-- rootfs&#45;&gt;ntpd
linuxkit/openntpd
0d7befc79842849d0b88d6c3b64200e340d7cf67 -->
<g id="edge24" class="edge">
<title>rootfs&#45;&gt;ntpd
linuxkit/openntpd
0d7befc79842849d0b88d6c3b64200e340d7cf67</title>
<path fill="none" stroke="#0000ff" d="M1669.564,-226.3153C1786.6492,-223.6772 2204.1308,-213.1912 2547.6987,-191 2812.4976,-173.8966 2881.2856,-168.9047 3148.9891,-137.0596"/>
<polygon fill="#0000ff" stroke="#0000ff" points="3159.0057,-135.8666 3149.6082,-141.5177 3154.0408,-136.458 3149.0759,-137.0493 3149.0759,-137.0493 3149.0759,-137.0493 3154.0408,-136.458 3148.5437,-132.5809 3159.0057,-135.8666 3159.0057,-135.8666"/>
</g>
<!-- sshd
linuxkit/sshd
d313eea3d9d7fbcbc927d06a6700325725db2a82 -->
<g id="node22" class="node">
<title>sshd
linuxkit/sshd
d313eea3d9d7fbcbc927d06a6700325725db2a82</title>
<polygon fill="none" stroke="#0000ff" points="3816.6753,-137 3494.7222,-137 3494.7222,-87 3816.6753,-87 3816.6753,-137"/>
<text text-anchor="middle" x="3655.6987" y="-121.8" font-family="Helvetica,sans-Serif" font-size="14.00" fill="#000000">sshd</text>
<text text-anchor="middle" x="3655.6987" y="-107.8" font-family="Helvetica,sans-Serif" font-size="14.00" fill="#000000">linuxkit/sshd</text>
<text text-anchor="middle" x="3655.6987" y="-93.8" font-family="Helvetica,sans-Serif" font-size="14.00" fill="#000000">d313eea3d9d7fbcbc927d06a6700325725db2a82</text>
</g>
<!-- rootfs&#45;&gt;sshd
linuxkit/sshd
d313eea3d9d7fbcbc927d06a6700325725db2a82 -->
<g id="edge25" class="edge">
<title>rootfs&#45;&gt;sshd
linuxkit/sshd
d313eea3d9d7fbcbc927d06a6700325725db2a82</title>
<path fill="none" stroke="#0000ff" d="M1669.5386,-226.5217C1804.2428,-224.3875 2340.5907,-214.774 2780.6987,-191 3091.1215,-174.2314 3171.6674,-171.9302 3484.399,-137.1169"/>
<polygon fill="#0000ff" stroke="#0000ff" points="3494.6695,-135.9712 3485.23,-141.5522 3489.7003,-136.5256 3484.7311,-137.0799 3484.7311,-137.0799 3484.7311,-137.0799 3489.7003,-136.5256 3484.2322,-132.6077 3494.6695,-135.9712 3494.6695,-135.9712"/>
</g>
<!-- /etc/kubernetes -->
<g id="node24" class="node">
<title>/etc/kubernetes</title>
<polygon fill="none" stroke="#0000ff" points="2134.4227,-130 2022.9748,-130 2022.9748,-94 2134.4227,-94 2134.4227,-130"/>
<text text-anchor="middle" x="2078.6987" y="-107.8" font-family="Helvetica,sans-Serif" font-size="14.00" fill="#000000">/etc/kubernetes</text>
</g>
<!-- rootfs&#45;&gt;/etc/kubernetes -->
<g id="edge36" class="edge">
<title>rootfs&#45;&gt;/etc/kubernetes</title>
<path fill="none" stroke="#0000ff" d="M1669.4419,-225.9849C1779.7988,-222.3039 2140.9712,-208.9257 2157.6987,-191 2168.6148,-179.3021 2165.8723,-168.7548 2157.6987,-155 2153.1693,-147.3776 2146.7626,-141.0212 2139.5343,-135.744"/>
<polygon fill="#0000ff" stroke="#0000ff" points="2130.7347,-130.0337 2141.5729,-131.7024 2134.929,-132.7555 2139.1233,-135.4773 2139.1233,-135.4773 2139.1233,-135.4773 2134.929,-132.7555 2136.6737,-139.2521 2130.7347,-130.0337 2130.7347,-130.0337"/>
<text text-anchor="middle" x="2208.7202" y="-181.4" font-family="Helvetica,sans-Serif" font-size="12.00" fill="#000000">/var/lib/kubeadm</text>
<text text-anchor="middle" x="2208.7202" y="-169.4" font-family="Helvetica,sans-Serif" font-size="12.00" fill="#000000"> rshared:False</text>
<text text-anchor="middle" x="2208.7202" y="-157.4" font-family="Helvetica,sans-Serif" font-size="12.00" fill="#000000"> rbind:False</text>
</g>
<!-- /etc/kubelet.sh.conf -->
<g id="node25" class="node">
<title>/etc/kubelet.sh.conf</title>
<polygon fill="none" stroke="#0000ff" points="1886.8262,-130 1750.5713,-130 1750.5713,-94 1886.8262,-94 1886.8262,-130"/>
<text text-anchor="middle" x="1818.6987" y="-107.8" font-family="Helvetica,sans-Serif" font-size="14.00" fill="#000000">/etc/kubelet.sh.conf</text>
</g>
<!-- rootfs&#45;&gt;/etc/kubelet.sh.conf -->
<g id="edge38" class="edge">
<title>rootfs&#45;&gt;/etc/kubelet.sh.conf</title>
<path fill="none" stroke="#0000ff" d="M1669.476,-225.7355C1745.8821,-222.3698 1934.9703,-211.9832 1953.6987,-191 1964.3529,-179.0631 1963.1888,-167.8817 1953.6987,-155 1937.6898,-133.2696 1921.4239,-145.1676 1895.6987,-137 1891.8892,-135.7905 1887.9759,-134.5412 1884.0289,-133.2759"/>
<polygon fill="#0000ff" stroke="#0000ff" points="1874.1881,-130.1113 1885.0856,-128.8888 1878.948,-131.642 1883.7079,-133.1728 1883.7079,-133.1728 1883.7079,-133.1728 1878.948,-131.642 1882.3303,-137.4567 1874.1881,-130.1113 1874.1881,-130.1113"/>
<text text-anchor="middle" x="2013.396" y="-181.4" font-family="Helvetica,sans-Serif" font-size="12.00" fill="#000000">/etc/kubelet.sh.conf</text>
<text text-anchor="middle" x="2013.396" y="-169.4" font-family="Helvetica,sans-Serif" font-size="12.00" fill="#000000"> rshared:False</text>
<text text-anchor="middle" x="2013.396" y="-157.4" font-family="Helvetica,sans-Serif" font-size="12.00" fill="#000000"> rbind:False</text>
</g>
<!-- /etc/kubeadm -->
<g id="node26" class="node">
<title>/etc/kubeadm</title>
<polygon fill="none" stroke="#0000ff" points="2004.7466,-130 1904.6509,-130 1904.6509,-94 2004.7466,-94 2004.7466,-130"/>
<text text-anchor="middle" x="1954.6987" y="-107.8" font-family="Helvetica,sans-Serif" font-size="14.00" fill="#000000">/etc/kubeadm</text>
</g>
<!-- rootfs&#45;&gt;/etc/kubeadm -->
<g id="edge40" class="edge">
<title>rootfs&#45;&gt;/etc/kubeadm</title>
<path fill="none" stroke="#0000ff" d="M1669.4667,-226.7671C1764.516,-225.7432 2041.787,-220.2533 2068.6987,-191 2079.5314,-179.2248 2078.0895,-167.9543 2068.6987,-155 2053.6029,-134.1758 2037.7834,-146.0254 2013.6987,-137 2011.013,-135.9936 2008.2699,-134.9363 2005.5081,-133.8486"/>
<polygon fill="#0000ff" stroke="#0000ff" points="1996.1028,-130.0632 2007.0598,-129.6224 2000.7412,-131.9301 2005.3796,-133.797 2005.3796,-133.797 2005.3796,-133.797 2000.7412,-131.9301 2003.6994,-137.9716 1996.1028,-130.0632 1996.1028,-130.0632"/>
<text text-anchor="middle" x="2115.0483" y="-181.4" font-family="Helvetica,sans-Serif" font-size="12.00" fill="#000000">/etc/kubeadm</text>
<text text-anchor="middle" x="2115.0483" y="-169.4" font-family="Helvetica,sans-Serif" font-size="12.00" fill="#000000"> rshared:False</text>
<text text-anchor="middle" x="2115.0483" y="-157.4" font-family="Helvetica,sans-Serif" font-size="12.00" fill="#000000"> rbind:False</text>
</g>
<!-- trxuk/zfs&#45;kmod
4.12.14&#45;5780e035ae466e124b541269f0003c11f80e8373&#45;amd64 -->
<g id="node3" class="node">
<title>trxuk/zfs&#45;kmod
4.12.14&#45;5780e035ae466e124b541269f0003c11f80e8373&#45;amd64</title>
<polygon fill="none" stroke="#000000" points="1466.8737,-318 1050.5238,-318 1050.5238,-282 1466.8737,-282 1466.8737,-318"/>
<text text-anchor="middle" x="1258.6987" y="-302.8" font-family="Helvetica,sans-Serif" font-size="14.00" fill="#000000">trxuk/zfs&#45;kmod</text>
<text text-anchor="middle" x="1258.6987" y="-288.8" font-family="Helvetica,sans-Serif" font-size="14.00" fill="#000000">4.12.14&#45;5780e035ae466e124b541269f0003c11f80e8373&#45;amd64</text>
</g>
<!-- trxuk/zfs&#45;kmod
4.12.14&#45;5780e035ae466e124b541269f0003c11f80e8373&#45;amd64&#45;&gt;rootfs -->
<g id="edge2" class="edge">
<title>trxuk/zfs&#45;kmod
4.12.14&#45;5780e035ae466e124b541269f0003c11f80e8373&#45;amd64&#45;&gt;rootfs</title>
<path fill="none" stroke="#000000" d="M1352.3841,-281.9551C1430.3435,-266.9391 1537.6625,-246.2682 1595.9381,-235.0436"/>
<polygon fill="#000000" stroke="#000000" points="1605.8875,-233.1272 1596.9192,-239.4374 1600.9778,-234.0729 1596.068,-235.0187 1596.068,-235.0187 1596.068,-235.0187 1600.9778,-234.0729 1595.2169,-230.5999 1605.8875,-233.1272 1605.8875,-233.1272"/>
</g>
<!-- nextnas/init
1 -->
<g id="node4" class="node">
<title>nextnas/init
1</title>
<polygon fill="none" stroke="#000000" points="1572.0192,-318 1485.3782,-318 1485.3782,-282 1572.0192,-282 1572.0192,-318"/>
<text text-anchor="middle" x="1528.6987" y="-302.8" font-family="Helvetica,sans-Serif" font-size="14.00" fill="#000000">nextnas/init</text>
<text text-anchor="middle" x="1528.6987" y="-288.8" font-family="Helvetica,sans-Serif" font-size="14.00" fill="#000000">1</text>
</g>
<!-- nextnas/init
1&#45;&gt;rootfs -->
<g id="edge3" class="edge">
<title>nextnas/init
1&#45;&gt;rootfs</title>
<path fill="none" stroke="#000000" d="M1555.6426,-281.9551C1569.6608,-272.5667 1586.9797,-260.9678 1602.0884,-250.8491"/>
<polygon fill="#000000" stroke="#000000" points="1610.6871,-245.0904 1604.8824,-254.3939 1606.5327,-247.8727 1602.3783,-250.655 1602.3783,-250.655 1602.3783,-250.655 1606.5327,-247.8727 1599.8742,-246.916 1610.6871,-245.0904 1610.6871,-245.0904"/>
</g>
<!-- linuxkit/runc
a1b564248a0d0b118c11e61db9f84ecf41dd2d2a -->
<g id="node5" class="node">
<title>linuxkit/runc
a1b564248a0d0b118c11e61db9f84ecf41dd2d2a</title>
<polygon fill="none" stroke="#000000" points="1905.7144,-318 1589.6831,-318 1589.6831,-282 1905.7144,-282 1905.7144,-318"/>
<text text-anchor="middle" x="1747.6987" y="-302.8" font-family="Helvetica,sans-Serif" font-size="14.00" fill="#000000">linuxkit/runc</text>
<text text-anchor="middle" x="1747.6987" y="-288.8" font-family="Helvetica,sans-Serif" font-size="14.00" fill="#000000">a1b564248a0d0b118c11e61db9f84ecf41dd2d2a</text>
</g>
<!-- linuxkit/runc
a1b564248a0d0b118c11e61db9f84ecf41dd2d2a&#45;&gt;rootfs -->
<g id="edge4" class="edge">
<title>linuxkit/runc
a1b564248a0d0b118c11e61db9f84ecf41dd2d2a&#45;&gt;rootfs</title>
<path fill="none" stroke="#000000" d="M1720.5077,-281.9551C1706.3609,-272.5667 1688.8831,-260.9678 1673.6358,-250.8491"/>
<polygon fill="#000000" stroke="#000000" points="1664.9582,-245.0904 1675.7786,-246.8704 1669.1243,-247.8551 1673.2903,-250.6199 1673.2903,-250.6199 1673.2903,-250.6199 1669.1243,-247.8551 1670.802,-254.3694 1664.9582,-245.0904 1664.9582,-245.0904"/>
</g>
<!-- nextnas/containerd
4 -->
<g id="node6" class="node">
<title>nextnas/containerd
4</title>
<polygon fill="none" stroke="#000000" points="2058.0018,-318 1923.3957,-318 1923.3957,-282 2058.0018,-282 2058.0018,-318"/>
<text text-anchor="middle" x="1990.6987" y="-302.8" font-family="Helvetica,sans-Serif" font-size="14.00" fill="#000000">nextnas/containerd</text>
<text text-anchor="middle" x="1990.6987" y="-288.8" font-family="Helvetica,sans-Serif" font-size="14.00" fill="#000000">4</text>
</g>
<!-- nextnas/containerd
4&#45;&gt;rootfs -->
<g id="edge5" class="edge">
<title>nextnas/containerd
4&#45;&gt;rootfs</title>
<path fill="none" stroke="#000000" d="M1923.1829,-283.8742C1920.3184,-283.2328 1917.4811,-282.6055 1914.6987,-282 1831.6606,-263.929 1734.085,-245.1155 1679.7239,-234.849"/>
<polygon fill="#000000" stroke="#000000" points="1669.7673,-232.973 1680.4277,-230.4025 1674.6809,-233.8988 1679.5944,-234.8247 1679.5944,-234.8247 1679.5944,-234.8247 1674.6809,-233.8988 1678.7611,-239.2469 1669.7673,-232.973 1669.7673,-232.973"/>
</g>
<!-- linuxkit/ca&#45;certificates
e44b0a66df5a102c0e220f0066b0d904710dcb10 -->
<g id="node7" class="node">
<title>linuxkit/ca&#45;certificates
e44b0a66df5a102c0e220f0066b0d904710dcb10</title>
<polygon fill="none" stroke="#000000" points="2393.7788,-318 2075.6186,-318 2075.6186,-282 2393.7788,-282 2393.7788,-318"/>
<text text-anchor="middle" x="2234.6987" y="-302.8" font-family="Helvetica,sans-Serif" font-size="14.00" fill="#000000">linuxkit/ca&#45;certificates</text>
<text text-anchor="middle" x="2234.6987" y="-288.8" font-family="Helvetica,sans-Serif" font-size="14.00" fill="#000000">e44b0a66df5a102c0e220f0066b0d904710dcb10</text>
</g>
<!-- linuxkit/ca&#45;certificates
e44b0a66df5a102c0e220f0066b0d904710dcb10&#45;&gt;rootfs -->
<g id="edge6" class="edge">
<title>linuxkit/ca&#45;certificates
e44b0a66df5a102c0e220f0066b0d904710dcb10&#45;&gt;rootfs</title>
<path fill="none" stroke="#000000" d="M2087.1257,-281.9551C1952.6876,-265.5162 1762.8221,-242.2998 1679.5705,-232.12"/>
<polygon fill="#000000" stroke="#000000" points="1669.4863,-230.8869 1679.9585,-227.634 1674.4493,-231.4938 1679.4123,-232.1007 1679.4123,-232.1007 1679.4123,-232.1007 1674.4493,-231.4938 1678.8661,-236.5675 1669.4863,-230.8869 1669.4863,-230.8869"/>
</g>
<!-- zfs&#45;mount
fddd7795334f -->
<g id="node12" class="node">
<title>zfs&#45;mount
fddd7795334f</title>
<polygon fill="none" stroke="#ff0000" points="1556.34,-43 1455.0575,-43 1455.0575,-7 1556.34,-7 1556.34,-43"/>
<text text-anchor="middle" x="1505.6987" y="-27.8" font-family="Helvetica,sans-Serif" font-size="14.00" fill="#000000">zfs&#45;mount</text>
<text text-anchor="middle" x="1505.6987" y="-13.8" font-family="Helvetica,sans-Serif" font-size="14.00" fill="#000000">fddd7795334f</text>
</g>
<!-- /etc/resolv.conf&#45;&gt;zfs&#45;mount
fddd7795334f -->
<g id="edge12" class="edge">
<title>/etc/resolv.conf&#45;&gt;zfs&#45;mount
fddd7795334f</title>
<path fill="none" stroke="#ff0000" d="M1642.0602,-93.9735C1615.4235,-80.5003 1578.8347,-61.9932 1550.2634,-47.5415"/>
<polygon fill="#ff0000" stroke="#ff0000" points="1541.2916,-43.0034 1552.2462,-43.5015 1545.7533,-45.2602 1550.215,-47.517 1550.215,-47.517 1550.215,-47.517 1545.7533,-45.2602 1548.1839,-51.5326 1541.2916,-43.0034 1541.2916,-43.0034"/>
</g>
<!-- kubelet
nextnas/kubelet&#45;zfs&#45;userspace
8 -->
<g id="node23" class="node">
<title>kubelet
nextnas/kubelet&#45;zfs&#45;userspace
8</title>
<polygon fill="none" stroke="#0000ff" points="1780.5738,-50 1574.8237,-50 1574.8237,0 1780.5738,0 1780.5738,-50"/>
<text text-anchor="middle" x="1677.6987" y="-34.8" font-family="Helvetica,sans-Serif" font-size="14.00" fill="#000000">kubelet</text>
<text text-anchor="middle" x="1677.6987" y="-20.8" font-family="Helvetica,sans-Serif" font-size="14.00" fill="#000000">nextnas/kubelet&#45;zfs&#45;userspace</text>
<text text-anchor="middle" x="1677.6987" y="-6.8" font-family="Helvetica,sans-Serif" font-size="14.00" fill="#000000">8</text>
</g>
<!-- /etc/resolv.conf&#45;&gt;kubelet
nextnas/kubelet&#45;zfs&#45;userspace
8 -->
<g id="edge29" class="edge">
<title>/etc/resolv.conf&#45;&gt;kubelet
nextnas/kubelet&#45;zfs&#45;userspace
8</title>
<path fill="none" stroke="#0000ff" d="M1677.6987,-93.9735C1677.6987,-84.2946 1677.6987,-72.0178 1677.6987,-60.5128"/>
<polygon fill="#0000ff" stroke="#0000ff" points="1677.6987,-50.2608 1682.1988,-60.2607 1677.6988,-55.2608 1677.6988,-60.2608 1677.6988,-60.2608 1677.6988,-60.2608 1677.6988,-55.2608 1673.1988,-60.2608 1677.6987,-50.2608 1677.6987,-50.2608"/>
</g>
<!-- /run&#45;&gt;zfs&#45;mount
fddd7795334f -->
<g id="edge14" class="edge">
<title>/run&#45;&gt;zfs&#45;mount
fddd7795334f</title>
<path fill="none" stroke="#ff0000" d="M1504.9059,-93.9735C1505.0414,-82.1918 1505.221,-66.5607 1505.3751,-53.1581"/>
<polygon fill="#ff0000" stroke="#ff0000" points="1505.4918,-43.0034 1509.8765,-53.0545 1505.4343,-48.003 1505.3768,-53.0027 1505.3768,-53.0027 1505.3768,-53.0027 1505.4343,-48.003 1500.8771,-52.9509 1505.4918,-43.0034 1505.4918,-43.0034"/>
</g>
<!-- /run&#45;&gt;kubelet
nextnas/kubelet&#45;zfs&#45;userspace
8 -->
<g id="edge31" class="edge">
<title>/run&#45;&gt;kubelet
nextnas/kubelet&#45;zfs&#45;userspace
8</title>
<path fill="none" stroke="#0000ff" d="M1530.2279,-93.9529C1534.0113,-91.5136 1537.9119,-89.1231 1541.6987,-87 1562.5984,-75.2828 1586.1146,-63.9522 1607.6408,-54.2537"/>
<polygon fill="#0000ff" stroke="#0000ff" points="1617.0516,-50.0593 1609.7497,-58.2405 1612.4847,-52.0948 1607.9177,-54.1303 1607.9177,-54.1303 1607.9177,-54.1303 1612.4847,-52.0948 1606.0858,-50.02 1617.0516,-50.0593 1617.0516,-50.0593"/>
</g>
<!-- /dev&#45;&gt;zfs&#45;mount
fddd7795334f -->
<g id="edge16" class="edge">
<title>/dev&#45;&gt;zfs&#45;mount
fddd7795334f</title>
<path fill="none" stroke="#ff0000" d="M1445.207,-93.8458C1451.6906,-85.8433 1459.4832,-76.3746 1466.6987,-68 1471.5833,-62.3308 1476.9152,-56.3329 1482.0241,-50.6739"/>
<polygon fill="#ff0000" stroke="#ff0000" points="1488.7895,-43.2298 1485.394,-53.6568 1485.4267,-46.93 1482.0638,-50.6302 1482.0638,-50.6302 1482.0638,-50.6302 1485.4267,-46.93 1478.7337,-47.6037 1488.7895,-43.2298 1488.7895,-43.2298"/>
</g>
<!-- /dev&#45;&gt;kubelet
nextnas/kubelet&#45;zfs&#45;userspace
8 -->
<g id="edge27" class="edge">
<title>/dev&#45;&gt;kubelet
nextnas/kubelet&#45;zfs&#45;userspace
8</title>
<path fill="none" stroke="#0000ff" d="M1455.8592,-93.9885C1460.0322,-91.4317 1464.4021,-88.9973 1468.6987,-87 1498.9464,-72.939 1533.1383,-61.2113 1564.9737,-51.8767"/>
<polygon fill="#0000ff" stroke="#0000ff" points="1574.7711,-49.0567 1566.406,-56.1473 1569.9661,-50.4398 1565.1612,-51.8228 1565.1612,-51.8228 1565.1612,-51.8228 1569.9661,-50.4398 1563.9165,-47.4984 1574.7711,-49.0567 1574.7711,-49.0567"/>
</g>
<!-- /tmp&#45;&gt;zfs&#45;mount
fddd7795334f -->
<g id="edge18" class="edge">
<title>/tmp&#45;&gt;zfs&#45;mount
fddd7795334f</title>
<path fill="none" stroke="#ff0000" d="M1384.059,-93.9329C1387.5967,-91.5469 1391.2134,-89.1763 1394.6987,-87 1416.5533,-73.3534 1441.5552,-59.2615 1462.2908,-47.9676"/>
<polygon fill="#ff0000" stroke="#ff0000" points="1471.192,-43.1481 1464.5409,-51.8667 1466.7951,-45.5288 1462.3983,-47.9095 1462.3983,-47.9095 1462.3983,-47.9095 1466.7951,-45.5288 1460.2556,-43.9523 1471.192,-43.1481 1471.192,-43.1481"/>
</g>
<!-- /tmp&#45;&gt;kubelet
nextnas/kubelet&#45;zfs&#45;userspace
8 -->
<g id="edge33" class="edge">
<title>/tmp&#45;&gt;kubelet
nextnas/kubelet&#45;zfs&#45;userspace
8</title>
<path fill="none" stroke="#0000ff" d="M1381.9327,-93.929C1386.0296,-91.3168 1390.3721,-88.8807 1394.6987,-87 1463.0867,-57.2733 1487.7252,-65.8855 1564.432,-50.198"/>
<polygon fill="#0000ff" stroke="#0000ff" points="1574.5675,-48.0469 1565.7197,-54.5251 1569.6764,-49.085 1564.7854,-50.1231 1564.7854,-50.1231 1564.7854,-50.1231 1569.6764,-49.085 1563.8511,-45.7212 1574.5675,-48.0469 1574.5675,-48.0469"/>
</g>
<!-- /var&#45;&gt;zfs&#45;mount
fddd7795334f -->
<g id="edge20" class="edge">
<title>/var&#45;&gt;zfs&#45;mount
fddd7795334f</title>
<path fill="none" stroke="#ff0000" d="M1562.7803,-93.9735C1552.4506,-81.4919 1538.5456,-64.6899 1527.0458,-50.7944"/>
<polygon fill="#ff0000" stroke="#ff0000" points="1520.5981,-43.0034 1530.4406,-47.8383 1523.7859,-46.8553 1526.9738,-50.7073 1526.9738,-50.7073 1526.9738,-50.7073 1523.7859,-46.8553 1523.507,-53.5764 1520.5981,-43.0034 1520.5981,-43.0034"/>
</g>
<!-- /var&#45;&gt;kubelet
nextnas/kubelet&#45;zfs&#45;userspace
8 -->
<g id="edge35" class="edge">
<title>/var&#45;&gt;kubelet
nextnas/kubelet&#45;zfs&#45;userspace
8</title>
<path fill="none" stroke="#0000ff" d="M1598.4188,-93.9735C1610.6792,-83.307 1626.5663,-69.4852 1640.8957,-57.0186"/>
<polygon fill="#0000ff" stroke="#0000ff" points="1648.6634,-50.2608 1644.0726,-60.2195 1644.8911,-53.5426 1641.1189,-56.8245 1641.1189,-56.8245 1641.1189,-56.8245 1644.8911,-53.5426 1638.1652,-53.4295 1648.6634,-50.2608 1648.6634,-50.2608"/>
</g>
<!-- /etc/kubernetes&#45;&gt;kubelet
nextnas/kubelet&#45;zfs&#45;userspace
8 -->
<g id="edge37" class="edge">
<title>/etc/kubernetes&#45;&gt;kubelet
nextnas/kubelet&#45;zfs&#45;userspace
8</title>
<path fill="none" stroke="#0000ff" d="M2035.0151,-93.9381C2027.9607,-91.3878 2020.6809,-88.9687 2013.6987,-87 1940.5235,-66.3677 1856.3971,-50.8539 1790.6279,-40.5051"/>
<polygon fill="#0000ff" stroke="#0000ff" points="1780.6482,-38.9521 1791.2213,-36.0433 1785.5888,-39.721 1790.5293,-40.4898 1790.5293,-40.4898 1790.5293,-40.4898 1785.5888,-39.721 1789.8374,-44.9363 1780.6482,-38.9521 1780.6482,-38.9521"/>
</g>
<!-- /etc/kubelet.sh.conf&#45;&gt;kubelet
nextnas/kubelet&#45;zfs&#45;userspace
8 -->
<g id="edge39" class="edge">
<title>/etc/kubelet.sh.conf&#45;&gt;kubelet
nextnas/kubelet&#45;zfs&#45;userspace
8</title>
<path fill="none" stroke="#0000ff" d="M1789.4834,-93.9735C1771.4854,-82.8684 1747.9446,-68.3432 1727.1102,-55.4879"/>
<polygon fill="#0000ff" stroke="#0000ff" points="1718.3709,-50.0956 1729.2443,-51.517 1722.6261,-52.7212 1726.8813,-55.3467 1726.8813,-55.3467 1726.8813,-55.3467 1722.6261,-52.7212 1724.5183,-59.1764 1718.3709,-50.0956 1718.3709,-50.0956"/>
</g>
<!-- /etc/kubeadm&#45;&gt;kubelet
nextnas/kubelet&#45;zfs&#45;userspace
8 -->
<g id="edge41" class="edge">
<title>/etc/kubeadm&#45;&gt;kubelet
nextnas/kubelet&#45;zfs&#45;userspace
8</title>
<path fill="none" stroke="#0000ff" d="M1914.0122,-93.9882C1907.9212,-91.5172 1901.679,-89.1083 1895.6987,-87 1860.1671,-74.4735 1820.7187,-62.6442 1785.2539,-52.7428"/>
<polygon fill="#0000ff" stroke="#0000ff" points="1775.3632,-50.0023 1786.2017,-48.336 1780.1816,-51.3374 1785.0001,-52.6726 1785.0001,-52.6726 1785.0001,-52.6726 1780.1816,-51.3374 1783.7984,-57.0092 1775.3632,-50.0023 1775.3632,-50.0023"/>
</g>
</g>
</svg>
